<svg width="237" height="237" viewBox="0 0 237 237" fill="none" xmlns="http://www.w3.org/2000/svg">
<circle cx="118.5" cy="118.5" r="112.5" fill="#131C27" stroke="#1479FF" stroke-width="12"/>
<path d="M48.4008 164.8C50.4965 163.524 52.2885 162.188 53.7768 160.791C55.2955 159.394 56.5408 157.845 57.5127 156.144C58.4847 154.473 59.1984 152.605 59.654 150.54C60.1096 148.444 60.3374 146.075 60.3374 143.432V81.7903H74.7798V140.836C74.7798 143.994 74.6431 146.88 74.3698 149.492C74.0964 152.074 73.6408 154.443 73.003 156.599C72.3955 158.786 71.5603 160.791 70.4972 162.613C69.4645 164.435 68.1737 166.167 66.6246 167.807C65.106 169.447 63.2988 171.026 61.203 172.545C59.1377 174.064 56.7382 175.598 54.0046 177.147L48.4008 164.8ZM93.3226 81.7903H107.765L133.643 107.759L159.521 81.7903H173.963V153H159.521V101.791L133.643 126.712L107.765 101.791V153H93.3226V81.7903Z" fill="#1479FF"/>
</svg>
